# xmcd
#
# Track frame offsets: 
#        150
#        18280
#        35483
#        60939
#        78522
#        96254
#        123011
#        139587
#        162866
#        180887
#
# Disc length: 2606 seconds
#
# Revision: 0
# Processed by: cddbd v1.5.2PL0 Copyright (c) Steve Scherf et al.
# Submitted via: ExactAudioCopyFreeDBPlugin 1.0
#
DISCID=6b0a2c0a
DTITLE=SiuBlack - Ly cafe ban me
DYEAR=1900
DGENRE=
TTITLE0=Ly cafe ban me
TTITLE1=Rock buon
TTITLE2=Tieng sao
TTITLE3=Em hat thuong ai
TTITLE4=Chieu xuan
TTITLE5=Trong anh chop cua so phan
TTITLE6=Em muon song ben anh tron doi
TTITLE7=Dau phai boi mua thu
TTITLE8=Mat troi em diu
TTITLE9=Doi mat Pleiku
EXTD=
EXTT0=
EXTT1=
EXTT2=
EXTT3=
EXTT4=
EXTT5=
EXTT6=
EXTT7=
EXTT8=
EXTT9=
PLAYORDER=
